<?xml version="1.0" encoding="utf-8"?>
<!-- Generator: Adobe Illustrator 23.0.3, SVG Export Plug-In . SVG Version: 6.00 Build 0)  -->
<svg version="1.1" id="Calque_1" xmlns="http://www.w3.org/2000/svg" xmlns:xlink="http://www.w3.org/1999/xlink" x="0px" y="0px"
	 viewBox="0 0 1080 1080" style="enable-background:new 0 0 1080 1080;" xml:space="preserve">
<style type="text/css">
	.st0{clip-path:url(#SVGID_2_);}
	.st1{fill:#111111;}
</style>
<g>
	<defs>
		<circle id="SVGID_1_" cx="540" cy="540" r="540"/>
	</defs>
	<clipPath id="SVGID_2_">
		<use xlink:href="#SVGID_1_"  style="overflow:visible;"/>
	</clipPath>
	<path class="st0" d="M540,1147.5C205,1147.5-67.5,875-67.5,540S205-67.5,540-67.5S1147.5,205,1147.5,540S875,1147.5,540,1147.5z
		 M540,67.5c-260.5,0-472.5,212-472.5,472.5s212,472.5,472.5,472.5s472.5-212,472.5-472.5S800.5,67.5,540,67.5z"/>
</g>
<path class="st1" d="M673.8,765.7c-8.7,0-17.4-3.4-24-10L516,620.1c-6.2-6.3-9.7-14.8-9.7-23.7V405c0-18.7,15.1-33.8,33.8-33.8
	s33.8,15.1,33.8,33.8v177.5l124.1,125.7c13.1,13.3,13,34.7-0.3,47.7C691,762.5,682.4,765.7,673.8,765.7z"/>
</svg>
